<svg width="24" height="22" viewBox="0 0 24 22" fill="none" xmlns="http://www.w3.org/2000/svg">
<path d="M23.0204 3.92234C22.0408 3.92234 21.0612 3.92234 20.0816 3.92234C20.0816 3.04069 20.0816 2.15908 20.0816 1.27743C20.0816 0.73641 19.6431 0.297821 19.102 0.297821C14.3673 0.297821 9.63264 0.297821 4.89793 0.297821C4.35691 0.297821 3.91832 0.736371 3.91832 1.27743C3.91832 2.15908 3.91832 3.04069 3.91832 3.92234C2.93871 3.92234 1.95914 3.92234 0.979531 3.92234C0.43855 3.92234 0 4.36093 0 4.90195C0 8.10195 0 11.302 0 14.502C0 15.043 0.43855 15.4816 0.979609 15.4816C1.95922 15.4816 2.93879 15.4816 3.9184 15.4816C3.9184 16.6383 3.9184 17.795 3.9184 18.9517C3.9184 19.5159 3.9184 20.08 3.9184 20.6442C3.9184 20.9708 3.98444 21.2144 4.23687 21.4453C4.35444 21.5528 4.47997 21.6225 4.6333 21.6656C4.7753 21.7054 4.91565 21.702 5.05918 21.702C7.3728 21.702 9.68641 21.702 12 21.702C14.3136 21.702 16.6272 21.702 18.9408 21.702C19.0844 21.702 19.2249 21.7054 19.3669 21.6655C19.5204 21.6224 19.646 21.5526 19.7636 21.4449C20.016 21.2137 20.0816 20.9697 20.0816 20.643C20.0816 20.0786 20.0816 19.5141 20.0816 18.9497C20.0816 17.7936 20.0816 16.6376 20.0816 15.4816C21.0612 15.4816 22.0408 15.4816 23.0204 15.4816C23.5614 15.4816 24 15.0431 24 14.502C24 11.302 24 8.10199 24 4.90198C24 4.36096 23.5615 3.92234 23.0204 3.92234ZM2.44898 7.3754C1.97561 7.3754 1.59185 6.99163 1.59185 6.51826C1.59185 6.04489 1.97561 5.66112 2.44898 5.66112C2.92236 5.66112 3.30612 6.04489 3.30612 6.51826C3.30612 6.99163 2.92236 7.3754 2.44898 7.3754ZM19.1021 20.7224H4.89797V12.9836H19.1021V20.7224ZM19.1021 3.92234C14.3674 3.92234 9.63268 3.92234 4.89797 3.92234C4.89797 3.36724 4.89797 2.8121 4.89797 2.25704C4.89797 1.71602 5.33652 1.27743 5.87758 1.27743C9.95919 1.27743 14.0409 1.27743 18.1225 1.27743C18.6635 1.27743 19.1021 1.71598 19.1021 2.25704C19.1021 2.81218 19.1021 3.36728 19.1021 3.92234Z" fill="white"/>
<path d="M23.0204 3.92234C22.0408 3.92234 21.0612 3.92234 20.0816 3.92234C20.0816 3.04069 20.0816 2.15908 20.0816 1.27743C20.0816 0.73641 19.6431 0.297821 19.102 0.297821C14.3673 0.297821 9.63264 0.297821 4.89793 0.297821C4.35691 0.297821 3.91832 0.736371 3.91832 1.27743C3.91832 2.15908 3.91832 3.04069 3.91832 3.92234C2.93871 3.92234 1.95914 3.92234 0.979531 3.92234C0.43855 3.92234 0 4.36093 0 4.90195C0 8.10195 0 11.302 0 14.502C0 15.043 0.43855 15.4816 0.979609 15.4816C1.95922 15.4816 2.93879 15.4816 3.9184 15.4816C3.9184 16.6383 3.9184 17.795 3.9184 18.9517C3.9184 19.5159 3.9184 20.08 3.9184 20.6442C3.9184 20.9708 3.98444 21.2144 4.23687 21.4453C4.35444 21.5528 4.47997 21.6225 4.6333 21.6656C4.7753 21.7054 4.91565 21.702 5.05918 21.702C7.3728 21.702 9.68641 21.702 12 21.702C14.3136 21.702 16.6272 21.702 18.9408 21.702C19.0844 21.702 19.2249 21.7054 19.3669 21.6655C19.5204 21.6224 19.646 21.5526 19.7636 21.4449C20.016 21.2137 20.0816 20.9697 20.0816 20.643C20.0816 20.0786 20.0816 19.5141 20.0816 18.9497C20.0816 17.7936 20.0816 16.6376 20.0816 15.4816C21.0612 15.4816 22.0408 15.4816 23.0204 15.4816C23.5614 15.4816 24 15.0431 24 14.502C24 11.302 24 8.10199 24 4.90198C24 4.36096 23.5615 3.92234 23.0204 3.92234ZM2.44898 7.3754C1.97561 7.3754 1.59185 6.99163 1.59185 6.51826C1.59185 6.04489 1.97561 5.66112 2.44898 5.66112C2.92236 5.66112 3.30612 6.04489 3.30612 6.51826C3.30612 6.99163 2.92236 7.3754 2.44898 7.3754ZM19.1021 20.7224H4.89797V12.9836H19.1021V20.7224ZM19.1021 3.92234C14.3674 3.92234 9.63268 3.92234 4.89797 3.92234C4.89797 3.36724 4.89797 2.8121 4.89797 2.25704C4.89797 1.71602 5.33652 1.27743 5.87758 1.27743C9.95919 1.27743 14.0409 1.27743 18.1225 1.27743C18.6635 1.27743 19.1021 1.71598 19.1021 2.25704C19.1021 2.81218 19.1021 3.36728 19.1021 3.92234Z" fill="#0058AA"/>
</svg>
