<svg width="24" height="24" viewBox="0 0 24 24" fill="none" xmlns="http://www.w3.org/2000/svg">
<path d="M18.2464 15.8765C17.4623 15.1024 16.4834 15.1024 15.7043 15.8765C15.11 16.4658 14.5157 17.0551 13.9314 17.6544C13.7716 17.8192 13.6368 17.8542 13.442 17.7443C13.0574 17.5345 12.6479 17.3647 12.2783 17.135C10.5554 16.0513 9.11204 14.6579 7.83353 13.0897C7.19927 12.3106 6.63493 11.4766 6.24039 10.5377C6.16048 10.3479 6.17547 10.2231 6.33029 10.0682C6.92459 9.49391 7.50392 8.9046 8.08823 8.31528C8.90228 7.49624 8.90229 6.53736 8.08324 5.71332C7.61878 5.24387 7.15432 4.7844 6.68987 4.31495C6.21043 3.83551 5.73598 3.35107 5.25154 2.87663C4.46746 2.11252 3.4886 2.11252 2.70951 2.88162C2.11021 3.47093 1.53588 4.07523 0.926592 4.65455C0.36225 5.18893 0.0775823 5.84317 0.0176522 6.60728C-0.077237 7.85082 0.227407 9.02446 0.656906 10.1681C1.53588 12.5354 2.87432 14.6379 4.49743 16.5657C6.68987 19.1726 9.30681 21.2352 12.3682 22.7235C13.7466 23.3927 15.175 23.9071 16.7282 23.992C17.7969 24.0519 18.7258 23.7822 19.47 22.9482C19.9794 22.3789 20.5537 21.8595 21.0931 21.3151C21.8921 20.5061 21.8971 19.5272 21.103 18.7281C20.1542 17.7742 19.2003 16.8254 18.2464 15.8765Z" fill="white"/>
<path d="M18.2464 15.8765C17.4623 15.1024 16.4834 15.1024 15.7043 15.8765C15.11 16.4658 14.5157 17.0551 13.9314 17.6544C13.7716 17.8192 13.6368 17.8542 13.442 17.7443C13.0574 17.5345 12.6479 17.3647 12.2783 17.135C10.5554 16.0513 9.11204 14.6579 7.83353 13.0897C7.19927 12.3106 6.63493 11.4766 6.24039 10.5377C6.16048 10.3479 6.17547 10.2231 6.33029 10.0682C6.92459 9.49391 7.50392 8.9046 8.08823 8.31528C8.90228 7.49624 8.90229 6.53736 8.08324 5.71332C7.61878 5.24387 7.15432 4.7844 6.68987 4.31495C6.21043 3.83551 5.73598 3.35107 5.25154 2.87663C4.46746 2.11252 3.4886 2.11252 2.70951 2.88162C2.11021 3.47093 1.53588 4.07523 0.926592 4.65455C0.36225 5.18893 0.0775823 5.84317 0.0176522 6.60728C-0.077237 7.85082 0.227407 9.02446 0.656906 10.1681C1.53588 12.5354 2.87432 14.6379 4.49743 16.5657C6.68987 19.1726 9.30681 21.2352 12.3682 22.7235C13.7466 23.3927 15.175 23.9071 16.7282 23.992C17.7969 24.0519 18.7258 23.7822 19.47 22.9482C19.9794 22.3789 20.5537 21.8595 21.0931 21.3151C21.8921 20.5061 21.8971 19.5272 21.103 18.7281C20.1542 17.7742 19.2003 16.8254 18.2464 15.8765Z" fill="#0058AA"/>
<path d="M17.2924 11.8961L19.1353 11.5815C18.8456 9.88846 18.0465 8.35525 16.833 7.13667C15.5495 5.85317 13.9263 5.04411 12.1384 4.7944L11.8787 6.64724C13.2621 6.84201 14.5207 7.46629 15.5145 8.46013C16.4534 9.39903 17.0677 10.5876 17.2924 11.8961Z" fill="white"/>
<path d="M17.2924 11.8961L19.1353 11.5815C18.8456 9.88846 18.0465 8.35525 16.833 7.13667C15.5495 5.85317 13.9263 5.04411 12.1384 4.7944L11.8787 6.64724C13.2621 6.84201 14.5207 7.46629 15.5145 8.46013C16.4534 9.39903 17.0677 10.5876 17.2924 11.8961Z" fill="#0058AA"/>
<path d="M20.1741 3.88547C18.0466 1.75795 15.3547 0.414516 12.3832 0L12.1235 1.85284C14.6905 2.21242 17.0178 3.37606 18.8557 5.20892C20.5986 6.95189 21.7423 9.15432 22.1568 11.5765L23.9997 11.2619C23.5152 8.45513 22.1918 5.90811 20.1741 3.88547Z" fill="white"/>
<path d="M20.1741 3.88547C18.0466 1.75795 15.3547 0.414516 12.3832 0L12.1235 1.85284C14.6905 2.21242 17.0178 3.37606 18.8557 5.20892C20.5986 6.95189 21.7423 9.15432 22.1568 11.5765L23.9997 11.2619C23.5152 8.45513 22.1918 5.90811 20.1741 3.88547Z" fill="#0058AA"/>
</svg>
